<svg xmlns="http://www.w3.org/2000/svg" viewBox="0 0 620 420" fill="none">
  <defs>
    <linearGradient id="bg" x1="0" y1="0" x2="0" y2="1">
      <stop offset="0" stop-color="#201A1C"/>
      <stop offset="1" stop-color="#080708"/>
    </linearGradient>
    <linearGradient id="curl" x1="0" y1="0" x2="1" y2="1">
      <stop offset="0" stop-color="#2A2324"/>
      <stop offset="0.45" stop-color="#110D0F"/>
      <stop offset="1" stop-color="#040404"/>
    </linearGradient>
  </defs>
  <rect width="620" height="420" fill="url(#bg)"/>
  <g fill="none" stroke="url(#curl)" stroke-width="14" opacity="0.92">
    <path d="M38 52c34-26 74-8 74 32 0 42-44 58-74 34-24-20-22-54 0-66Z"/>
    <path d="M124 26c34-26 74-8 74 32 0 42-44 58-74 34-24-20-22-54 0-66Z"/>
    <path d="M210 52c34-26 74-8 74 32 0 42-44 58-74 34-24-20-22-54 0-66Z"/>
    <path d="M296 24c34-26 74-8 74 32 0 42-44 58-74 34-24-20-22-54 0-66Z"/>
    <path d="M382 50c34-26 74-8 74 32 0 42-44 58-74 34-24-20-22-54 0-66Z"/>
    <path d="M468 20c34-26 74-8 74 32 0 42-44 58-74 34-24-20-22-54 0-66Z"/>
    <path d="M38 164c34-26 74-8 74 32 0 42-44 58-74 34-24-20-22-54 0-66Z"/>
    <path d="M124 140c34-26 74-8 74 32 0 42-44 58-74 34-24-20-22-54 0-66Z"/>
    <path d="M210 168c34-26 74-8 74 32 0 42-44 58-74 34-24-20-22-54 0-66Z"/>
    <path d="M296 140c34-26 74-8 74 32 0 42-44 58-74 34-24-20-22-54 0-66Z"/>
    <path d="M382 166c34-26 74-8 74 32 0 42-44 58-74 34-24-20-22-54 0-66Z"/>
    <path d="M468 138c34-26 74-8 74 32 0 42-44 58-74 34-24-20-22-54 0-66Z"/>
    <path d="M38 280c34-26 74-8 74 32 0 42-44 58-74 34-24-20-22-54 0-66Z"/>
    <path d="M124 252c34-26 74-8 74 32 0 42-44 58-74 34-24-20-22-54 0-66Z"/>
    <path d="M210 282c34-26 74-8 74 32 0 42-44 58-74 34-24-20-22-54 0-66Z"/>
    <path d="M296 254c34-26 74-8 74 32 0 42-44 58-74 34-24-20-22-54 0-66Z"/>
    <path d="M382 280c34-26 74-8 74 32 0 42-44 58-74 34-24-20-22-54 0-66Z"/>
    <path d="M468 252c34-26 74-8 74 32 0 42-44 58-74 34-24-20-22-54 0-66Z"/>
  </g>
</svg>
