<svg xmlns="http://www.w3.org/2000/svg" viewBox="0 0 440 520" fill="none">
  <defs>
    <linearGradient id="bg" x1="0" y1="0" x2="0" y2="1">
      <stop offset="0" stop-color="#FBF9F6"/>
      <stop offset="1" stop-color="#EFEAE1"/>
    </linearGradient>
    <linearGradient id="skin" x1="0" y1="0" x2="1" y2="1">
      <stop offset="0" stop-color="#AD7150"/>
      <stop offset="1" stop-color="#6B402C"/>
    </linearGradient>
    <linearGradient id="hair" x1="0" y1="0" x2="0" y2="1">
      <stop offset="0" stop-color="#251F21"/>
      <stop offset="0.55" stop-color="#0F0C0D"/>
      <stop offset="1" stop-color="#050505"/>
    </linearGradient>
  </defs>
  <rect width="440" height="520" fill="url(#bg)"/>
  <g transform="translate(56 32)">
    <path d="M18 160C18 68 94 0 164 0s146 68 146 160v178H18V160Z" fill="url(#hair)"/>
    <ellipse cx="164" cy="132" rx="70" ry="86" fill="url(#skin)"/>
    <path d="M98 236c20-22 42-32 66-32 25 0 48 11 68 33l24 188H72l26-189Z" fill="#1B1718"/>
    <path d="M44 202c18 70 42 126 70 172H56c-26-46-42-102-50-172h38Z" fill="url(#hair)"/>
    <path d="M284 202c-18 70-42 126-70 172h58c26-46 42-102 50-172h-38Z" fill="url(#hair)"/>
  </g>
</svg>
